<svg
   version="1.0"
   viewBox="0 0 2462.000000 512.000000"
   preserveAspectRatio="xMidYMid meet">
  <g
     transform="translate(0.000000,512.000000) scale(0.100000,-0.100000)"
     fill="#000000"
     stroke="none"
     id="g2067"
     style="fill:#ffffff">
    <path
       d="M1740 5114 c-14 -2 -65 -9 -115 -15 -351 -43 -716 -218 -993 -475 -501 -465 -701 -1141 -537 -1810 169 -688 710 -1611 1500 -2559 165 -197 210 -241 259 -251 90 -16 125 7 280 191 605 712 1099 1467 1364 2080 166 384 242 697 242 1000 0 291 -56 535 -185 800 -315 647 -969 1053 -1682 1044 -59 -1 -119 -3 -133 -5z m372 -943 c279 -72 505 -259 624 -515 55 -120 75 -207 81 -351 4 -106 1 -148 -15 -225 -73 -355 -344 -635 -698 -722 -124 -30 -304 -30 -429 1 -264 64 -498 251 -620 496 -72 145 -89 222 -89 410 -1 138 2 171 22 239 107 370 394 624 777 687 78 13 261 2 347 -20z"
       id="path2049"
       style="fill:#ffffff" />
    <path
       d="M4720 4379 c-58 -11 -118 -55 -155 -114 l-30 -48 0 -1651 c0 -1608 1 -1652 19 -1690 11 -21 35 -53 54 -72 69 -67 18 -64 1126 -64 659 0 1014 4 1038 10 21 6 57 25 80 43 139 105 113 334 -47 408 -38 18 -84 19 -911 19 -786 0 -872 2 -878 16 -3 9 -6 680 -6 1492 0 1407 -1 1479 -19 1517 -44 98 -159 155 -271 134z"
       id="path2051"
       style="fill:#ffffff" />
    <path
       d="M15863 4379 c-77 -15 -130 -55 -169 -129 -18 -32 -19 -69 -22 -497 l-3 -463 -77 0 c-125 0 -203 -48 -247 -153 -42 -101 10 -241 110 -295 18 -10 66 -18 120 -22 l90 -5 6 -670 c5 -630 7 -675 26 -760 81 -353 268 -540 615 -616 118 -26 312 -36 362 -19 49 16 111 72 139 124 28 56 29 156 0 211 -47 90 -107 122 -257 135 -150 13 -231 46 -303 121 -41 44 -68 99 -88 175 -13 52 -15 148 -13 680 l3 619 181 5 c179 5 181 5 222 33 160 112 137 347 -42 422 -26 11 -78 15 -200 15 l-165 0 -3 463 -3 462 -28 48 c-33 56 -95 104 -146 113 -20 3 -43 7 -51 9 -8 1 -34 -1 -57 -6z"
       id="path2053"
       style="fill:#ffffff" />
    <path
       d="M21883 4379 c-79 -15 -146 -68 -180 -144 -17 -38 -18 -114 -23 -1275 -5 -988 -8 -1243 -19 -1275 -67 -204 -223 -365 -415 -429 -278 -93 -590 23 -744 277 -57 95 -71 148 -98 374 -3 25 -19 62 -38 90 -98 142 -310 136 -401 -12 -29 -48 -30 -51 -29 -174 1 -100 7 -146 27 -223 82 -312 302 -584 589 -729 415 -209 918 -135 1257 186 171 162 287 369 338 605 17 80 18 163 18 1315 0 987 -3 1237 -13 1267 -36 101 -157 168 -269 147z"
       id="path2055"
       style="fill:#ffffff" />
    <path
       d="M23503 4379 c-207 -19 -387 -100 -538 -241 -184 -172 -281 -363 -305 -603 -30 -298 70 -569 289 -778 134 -128 312 -220 478 -248 239 -39 284 -53 395 -126 126 -82 226 -223 263 -368 18 -69 20 -211 4 -287 -6 -29 -31 -95 -56 -147 -61 -128 -160 -228 -283 -288 -108 -52 -172 -67 -286 -66 -225 3 -391 94 -548 301 -62 84 -110 106 -210 100 -87 -6 -143 -37 -186 -105 -56 -88 -52 -187 12 -283 53 -81 175 -208 256 -270 136 -103 359 -195 536 -219 432 -60 866 147 1103 527 86 137 135 291 154 479 47 467 -215 918 -655 1123 -100 48 -199 75 -336 94 -126 18 -173 33 -245 82 -74 48 -120 104 -163 194 -33 67 -37 85 -40 170 -3 77 1 106 17 154 43 122 129 219 245 276 131 65 274 62 414 -6 61 -29 82 -47 120 -97 83 -109 152 -174 202 -187 94 -25 201 13 259 94 30 42 35 57 39 122 4 68 2 79 -26 137 -18 34 -58 92 -89 129 -212 247 -503 367 -820 337z"
       id="path2057"
       style="fill:#ffffff" />
    <path
       d="M8220 3275 c-256 -40 -489 -163 -685 -360 -117 -117 -188 -216 -255 -358 -196 -409 -148 -925 120 -1286 288 -388 727 -579 1200 -521 447 55 852 366 1022 784 54 132 79 256 85 426 13 392 -115 714 -388 975 -195 187 -416 299 -671 340 -112 18 -312 18 -428 0z m327 -470 c81 -8 169 -37 264 -87 284 -150 454 -469 418 -784 -22 -200 -105 -363 -252 -500 -170 -158 -340 -220 -577 -211 -105 4 -139 9 -212 34 -277 95 -476 321 -534 606 -20 96 -14 268 11 362 39 145 139 300 260 404 133 114 376 199 530 185 17 -2 58 -6 92 -9z"
       id="path2059"
       style="fill:#ffffff" />
    <path
       d="M11200 3285 c-8 -2 -49 -9 -90 -15 -446 -72 -856 -439 -984 -884 -105 -362 -51 -757 146 -1057 160 -244 398 -433 655 -520 153 -52 232 -63 423 -63 141 0 194 4 270 21 207 46 402 144 543 273 71 65 91 113 85 209 -3 59 -9 77 -35 113 -42 58 -118 98 -188 98 -72 0 -108 -14 -200 -81 -152 -110 -296 -159 -467 -159 -221 0 -401 70 -556 214 -178 167 -262 377 -249 626 15 291 173 535 432 665 125 63 222 86 365 86 189 0 327 -49 498 -176 88 -65 149 -82 230 -65 147 32 224 194 158 335 -16 36 -42 66 -92 106 -234 191 -494 281 -804 278 -69 -1 -132 -3 -140 -4z"
       id="path2061"
       style="fill:#ffffff" />
    <path
       d="M13681 3274 c-110 -18 -277 -75 -369 -124 -260 -140 -488 -392 -592 -653 -126 -317 -121 -680 16 -1000 80 -186 269 -413 447 -535 379 -261 874 -294 1289 -86 51 25 121 66 155 90 34 24 64 44 67 44 2 0 8 -21 11 -47 10 -69 37 -123 77 -159 115 -101 284 -77 363 50 l30 49 0 646 c0 593 -2 653 -19 731 -98 451 -431 817 -868 955 -171 54 -421 70 -607 39z m414 -485 c44 -10 123 -40 175 -66 80 -40 111 -63 191 -143 107 -106 161 -190 206 -325 25 -74 27 -93 27 -240 0 -147 -2 -167 -27 -240 -59 -176 -200 -354 -355 -445 -122 -72 -225 -102 -372 -107 -250 -10 -420 57 -595 232 -124 125 -188 238 -222 398 -21 102 -13 297 17 392 47 152 144 295 264 391 199 159 441 213 691 153z"
       id="path2063"
       style="fill:#ffffff" />
    <path
       d="M18150 3285 c-8 -2 -49 -9 -90 -15 -494 -80 -927 -515 -1014 -1020 -20 -119 -21 -349 -1 -463 66 -377 316 -718 665 -906 221 -118 517 -166 788 -125 203 30 397 111 558 232 71 54 94 78 117 121 83 166 -22 345 -203 345 -73 0 -103 -12 -195 -81 -74 -56 -149 -94 -240 -123 -96 -31 -301 -39 -399 -16 -211 50 -391 170 -502 337 -41 62 -94 174 -94 199 0 7 301 10 918 10 570 0 930 4 952 10 78 22 143 92 160 174 14 68 -3 256 -35 381 -114 451 -494 814 -962 920 -62 15 -384 30 -423 20z m310 -487 c237 -45 462 -222 570 -449 52 -111 138 -99 -731 -99 l-761 0 7 33 c12 54 71 160 128 232 187 233 485 340 787 283z"
       id="path2065"
       style="fill:#ffffff" />
  </g>
</svg>
